<svg width="194" height="330" viewBox="0 0 194 330" fill="none" xmlns="http://www.w3.org/2000/svg">
<path d="M137.145 7.09153L149.145 14.0505C168.444 25.3982 178.697 45.7873 175.85 67.9961C171.552 102.409 171.513 128.73 176.007 146.614C179.707 160.958 184.373 175.5 190.171 190.595C197.539 209.951 193.085 232.917 178.067 251.508L146.76 290.159C115.726 328.464 58.8692 341.102 19.8296 318.396L-12.602 299.536C-69.7243 266.214 -79.1242 193.904 -33.892 138.046L57.7602 24.6836C77.0554 0.817791 112.539 -7.19205 137.145 7.09153ZM124.706 28.3816C110.966 20.5034 88.7945 25.2896 76.8661 40.2527L-14.6913 153.353C-50.8224 197.971 -43.5449 252.802 -0.163094 278.246L32.2685 297.106C60.5255 313.584 103.987 303.992 127.476 274.674L158.783 236.023C168.609 224.006 171.331 210.334 167.103 199.499C160.886 183.514 155.896 167.82 152.218 152.596C146.752 131.258 146.773 102.119 151.315 64.9825C152.861 52.5163 147.572 41.7459 136.706 35.3405L124.706 28.3816ZM112.184 49.4938L124.267 56.6306C126.7 58.0936 127.287 59.3392 126.959 61.8848C121.815 101.913 121.907 133.607 128.251 158.663C132.169 174.861 137.577 191.444 144.035 208.403C144.945 210.8 143.954 215.18 139.761 220.632L108.453 259.283C92.3425 279.258 62.1818 286.067 44.7912 275.994L12.2758 256.956C-17.5439 239.474 -22.4368 202.215 4.59322 168.838L96.0668 55.5598C100.617 49.9394 109.488 47.9369 112.184 49.4938ZM43.5451 195.063C41.6533 197.295 40.2785 199.916 39.5193 202.737C38.7601 205.559 38.6353 208.511 39.1539 211.384C39.6724 214.256 40.8214 216.977 42.5185 219.351C44.2157 221.725 46.419 223.694 48.9705 225.116C48.9705 225.116 49.0543 225.294 49.3165 225.388C60.7185 231.541 75.0284 227.195 81.2224 215.801L88.1634 202.752C93.7999 192.49 93.6662 180.162 88.0096 170C87.2067 168.729 86.2254 167.581 85.0955 166.589C83.7751 165.457 82.2412 164.6 80.5836 164.068C78.9259 163.535 77.1777 163.338 75.4411 163.488C73.7045 163.637 72.0143 164.131 70.4694 164.939C68.9245 165.748 67.5559 166.855 66.4434 168.197L43.5451 195.063Z" fill="#8E021C" fill-opacity="0.3"/>
</svg>
