<svg width="174" height="233" viewBox="0 0 174 233" fill="none" xmlns="http://www.w3.org/2000/svg">
<path d="M55.7126 6.38043C10.5047 22.4836 -11.3778 74.733 5.89987 119.571C17.8047 149.325 44.2848 168.658 73.1737 172.75C92.2953 175.091 108.514 187.619 114.713 205.023L115.54 207.344C122.566 227.068 143.008 236.784 162.714 229.765C209.081 213.249 200.008 151.106 166.945 58.2838C166.945 58.2838 138.014 -22.9356 55.7126 6.38043ZM154.448 206.559C147.493 209.037 141.203 206.047 138.723 199.086L137.897 196.765C128.804 171.239 105.056 152.241 77.3262 147.736C55.473 145.06 37.2686 130.625 28.6701 110.153C23.2973 95.0689 23.307 76.7606 29.6067 61.4417C35.9063 46.1228 48.9092 34.9537 62.8193 29.9989C119.619 9.76667 140.455 57.2596 143.761 66.5418C184.677 181.409 169.517 201.192 154.448 206.559ZM124.065 55.2527L48.2856 117.548C44.7274 114.893 41.915 110.665 39.8486 104.863C36.9555 96.7413 36.7941 88.9538 37.3786 79.5932L89.8032 36.077C106.193 38.0839 116.868 46.049 124.065 55.2527ZM121.446 154.248L149.77 131.084C154.81 148.901 155.879 162.902 156.453 171.85L143.451 183.019C139.318 171.417 132.121 162.213 121.446 154.248ZM132.996 72.9914C137.955 86.9147 142.502 99.6777 145.062 110.533L104.895 144.453C97.0322 140.716 88.0107 137.393 78.6566 136.802C73.1933 136.133 67.3167 134.304 62.5993 132.062L132.996 72.9914Z" fill="#8E021C" fill-opacity="0.3"/>
</svg>
