<svg width="200" height="221" viewBox="0 0 200 221" fill="none" xmlns="http://www.w3.org/2000/svg">
<path d="M69.4857 22.0952C60.3159 22.0952 51.5881 24.5257 44.186 29.3866C31.5914 37.5619 23.8579 50.0457 22.0902 64.518C21.4584 71.5283 22.367 78.5918 24.7526 85.2139C27.1381 91.836 30.9428 97.8564 35.9001 102.853C43.6336 110.476 53.4662 115.337 64.2932 116.442C85.3946 118.651 103.955 127.048 117.765 141.078C119.436 142.704 121.675 143.614 124.007 143.614C126.339 143.614 128.578 142.704 130.249 141.078L141.186 130.141C141.961 129.376 142.575 128.464 142.992 127.458C143.41 126.453 143.622 125.374 143.617 124.286C143.617 121.524 142.402 119.093 140.082 116.773C126.714 103.295 118.538 85.398 116.55 64.8495C115.113 50.1561 107.269 37.5619 94.4539 29.2762C87.1623 24.5257 78.5449 22.0952 69.4857 22.0952ZM69.4857 0C82.4117 0 95.3377 3.53524 106.496 10.7162C125.94 23.2 136.657 42.6438 138.535 62.7504C139.971 77.3333 145.495 90.9218 155.659 101.086L155.991 101.417C168.806 114.232 168.806 133.787 156.764 145.718L145.827 156.655C139.75 162.731 131.906 165.714 124.062 165.714C116.218 165.714 108.264 162.731 102.187 156.655C91.471 145.939 77.3297 140.084 61.9731 138.427C46.8375 136.769 32.0333 130.141 20.3226 118.541C12.9754 111.204 7.37161 102.309 3.92575 92.5146C0.479889 82.7199 -0.719894 72.276 0.415115 61.9551C1.55011 51.6342 4.99088 41.7006 10.4829 32.8888C15.975 24.077 23.3778 16.6126 32.1438 11.0476C43.3022 3.64571 56.3387 0 69.4857 0ZM173.888 197.31C170.905 203.497 171.9 211.009 177.092 216.091C179.341 218.374 182.207 219.951 185.339 220.628C188.471 221.305 191.733 221.054 194.724 219.904C197.715 218.755 200.306 216.757 202.178 214.157C204.05 211.556 205.123 208.466 205.264 205.265C208.466 205.123 211.556 204.051 214.157 202.179C216.757 200.306 218.755 197.716 219.904 194.725C221.054 191.734 221.305 188.472 220.628 185.34C219.951 182.208 218.374 179.342 216.091 177.093C211.009 172.011 203.386 170.906 197.31 173.889L169.911 147.044C168.364 149.143 166.597 151.573 164.608 153.562L153.671 164.499C151.35 166.708 149.141 168.587 146.268 170.244L173.888 197.31Z" fill="#8E021C" fill-opacity="0.3"/>
</svg>
