<svg width="117" height="298" viewBox="0 0 117 298" fill="none" xmlns="http://www.w3.org/2000/svg">
<path d="M97.7036 27.8046C94.4714 25.3668 89.9742 26.0015 87.5774 29.1793L70.5229 51.7903C69.9239 52.5845 69.0346 53.1087 68.0506 53.2476C67.0666 53.3865 66.0686 53.1287 65.2761 52.5309C64.4836 51.9332 63.9615 51.0444 63.8247 50.0601C63.6878 49.0759 63.9475 48.0768 64.5465 47.2826L81.4166 24.916C83.8135 21.7383 83.4483 17.1484 80.3843 14.7414C79.6348 14.1376 78.7712 13.6909 77.8451 13.4279C76.9189 13.165 75.949 13.0911 74.9929 13.2108C74.0369 13.3304 73.1143 13.6412 72.2799 14.1245C71.4456 14.6078 70.7165 15.2538 70.1361 16.0241L53.0816 38.6352C52.4826 39.4293 51.5933 39.9535 50.6093 40.0924C49.6254 40.2313 48.6274 39.9735 47.8348 39.3757C47.0423 38.778 46.5202 37.8892 46.3834 36.905C46.2466 35.9207 46.5062 34.9216 47.1052 34.1275L63.9754 11.7609C66.3722 8.5831 66.0071 3.99322 62.943 1.58626C62.1935 0.982374 61.33 0.535684 60.4038 0.272734C59.4776 0.00978404 58.5077 -0.0640577 57.5517 0.0556034C56.5956 0.175264 55.673 0.485984 54.8387 0.969289C54.0043 1.45259 53.2753 2.09862 52.6948 2.86896L23.5639 41.491C20.8496 45.0764 19.0017 49.2409 18.1656 53.6576C17.3295 58.0742 17.5278 62.6226 18.745 66.9455C21.0525 74.6303 11.8477 86.8341 11.8477 86.8341L-51.761 171.167C-55.0336 175.506 -54.17 181.718 -49.8402 184.984L-47.8887 186.456C-43.5589 189.722 -37.3484 188.845 -34.0758 184.506L29.5836 100.106C29.5836 100.106 38.9728 87.6578 46.6861 88.0106C51.1958 88.0124 55.646 86.9636 59.6843 84.9473C63.7227 82.931 67.2383 80.0026 69.9528 76.3939L99.0423 37.8268C99.6231 37.0838 100.05 36.2324 100.297 35.3226C100.545 34.4129 100.608 33.4631 100.483 32.5293C100.358 31.5955 100.048 30.6965 99.571 29.8851C99.0936 29.0737 98.4587 28.3663 97.7036 27.8046ZM109.771 120.125C117.333 125.829 118.822 136.54 113.106 144.117L50.1889 227.534L50.1417 227.469L0.29645 293.555C-2.97617 297.894 -9.18661 298.77 -13.5164 295.504L-15.4679 294.032C-19.7977 290.767 -20.6614 284.554 -17.3888 280.215L37.2963 207.714C34.2487 202.097 32.8853 195.718 33.3695 189.339C33.8536 182.96 36.1647 176.853 40.0261 171.748L75.2921 124.992C83.4357 114.068 98.9157 111.938 109.771 120.125Z" fill="#8E021C" fill-opacity="0.3"/>
</svg>
